<?xml version="1.0" encoding="utf-8" ?>
<svg xmlns="http://www.w3.org/2000/svg" xmlns:xlink="http://www.w3.org/1999/xlink" width="300" height="124">
	<path fill="#16757F" transform="matrix(0.486224 0 0 0.486275 6.10352e-05 0)" d="M24.6076 56.4905C26.6375 52.872 30.1259 49.4008 32.9077 46.3138C47.9992 29.5657 67.3488 15.4313 89.2598 9.27941C96.9602 7.11737 105.06 6.03578 113.024 5.50496C136.906 3.9131 160.132 8.01413 181.13 19.8249C198.85 29.7923 213.444 44.5843 224.782 61.3272C227.078 64.7169 229.489 68.123 231.307 71.7986C234.144 77.5301 236.167 84.412 237.884 90.5762C245.525 117.983 244.154 147.122 233.975 173.691C232.084 178.637 230.112 183.562 227.495 188.179C215.439 209.446 198.152 225.425 176.587 236.708C170.196 240.052 163.973 243.009 156.999 244.923C125.809 253.799 92.3689 249.873 64.0808 234.012C51.6039 226.905 40.7346 217.271 31.4967 206.325C29.6337 204.117 27.6277 201.916 26.0794 199.476C24.2568 197.698 22.6724 195.488 21.1951 193.415C19.2487 190.684 17.6346 187.708 15.9901 184.788C6.54918 168.025 2.06282 150.032 1.62501 130.813C1.52209 126.295 1.37681 121.381 2.11887 116.922C1.88804 113.132 2.77314 108.379 3.57878 104.717C4.42844 92.6808 15.8215 64.7989 24.6076 56.4905ZM174.061 48.584C186.253 60.181 194.15 75.3157 194.609 92.3949C194.765 98.2101 193.333 104.572 195.161 110.192C197.554 117.55 216.524 138.494 210.797 144.56C207.208 148.361 199.059 146.265 199.142 152.666C199.179 155.612 201.252 161.46 199.116 163.807C198.205 164.808 196.242 165.441 195.758 166.716C196.961 168.683 197.939 170.859 197.32 173.231C196.64 175.831 194.278 177.623 193.849 180.344C192.713 187.558 198.756 194.804 189.323 200.025C174.832 208.045 151.698 189.771 144.947 212.923C143.405 218.209 142.803 224.239 142.603 229.74C142.509 232.303 142.795 235.246 142.234 237.739C148.101 236.514 153.829 235.208 159.513 233.27C181.217 225.867 200.908 211.514 213.519 192.216C230.736 165.83 236.779 133.685 230.321 102.843C229.223 97.5825 227.091 92.5268 225.111 87.553C216.652 66.3036 204.472 47.4801 184.986 34.8498C180.765 32.1135 176.534 29.2547 172.051 26.9622C169.133 25.4697 166.009 24.3537 162.956 23.1697C148.383 17.5173 134.026 15.0526 118.401 15.5097C89.7326 16.6274 63.5551 28.4983 44.0439 49.641C26.7708 68.3584 16.8892 88.6591 13.8591 114.021C13.2258 119.322 12.5983 124.786 12.8156 130.131C13.4263 145.151 17.3091 158.435 23.2554 172.12C25.726 177.806 28.3215 183.331 31.7086 188.537C34.2647 192.466 37.3327 196.041 40.2761 199.679C43.5066 203.672 46.5111 207.459 50.3119 210.949C53.7185 214.078 57.4204 216.788 60.9334 219.782C67.0816 196.034 72.9011 179.748 59.3886 156.768C55.0738 149.43 49.6235 143.02 45.9955 135.251C44.889 132.882 43.8706 130.319 43.2776 127.766C40.63 116.371 39.7534 95.1083 42.6451 83.8762C47.5572 64.7964 63.0799 48.3859 79.7584 38.6048C97.659 28.1071 121.903 25.7728 141.833 30.9928C153.361 34.0123 165.471 40.1933 174.061 48.584ZM143.162 160.598C145.858 158.314 148.592 155.978 150.835 153.234C152.729 150.917 153.954 148.251 155.42 145.663C159.324 138.771 162.381 134.461 163.06 126.163C163.543 120.26 162.266 114.587 158.35 109.975C154.861 105.868 149.483 103.269 144.129 102.86C139.106 102.477 133.685 104.547 129.914 107.827C126.662 110.656 124.501 114.027 122.617 117.861C118.457 111.284 113.683 105.092 105.688 103.265C104.086 102.899 102.354 102.718 100.711 102.856C94.1929 103.948 88.3011 108.156 84.4654 113.489C81.5278 117.573 81.1549 123.864 81.956 128.671C85.0038 146.956 101.11 159.27 114.7 170.099C117.18 172.075 119.475 174.656 121.999 176.468C122.218 176.623 122.443 176.767 122.674 176.902C129.566 171.54 136.49 166.235 143.162 160.598ZM137.589 71.2431C133.81 75.8838 128.353 86.3082 127.287 92.1049C129.743 87.7194 131.823 84.9284 135.767 81.7698C140.648 77.4724 144.827 73.1031 151.289 71.4458C144.672 79.1557 138.179 84.7971 132.6 93.6213C137.906 92.4785 142.369 91.732 147.085 88.7081C149.386 87.2325 151.581 85.42 153.219 83.2139C157.138 77.9354 160.603 66.3943 162.063 59.7513C152.35 60.8612 144.757 64.6402 137.589 71.2431ZM116.816 89.0825C115.718 86.796 114.328 83.0439 112.556 81.3029C110.095 74.802 104.073 68.1255 98.1826 64.601C93.215 62.1352 88.42 60.5217 82.959 59.4963C83.3005 61.9611 83.5515 64.5382 84.2266 66.9355C86.269 74.1882 91.5036 83.7904 97.5275 88.3177C101.869 91.5804 106.441 92.2555 111.607 93.4451C109.72 90.8814 107.914 88.1724 105.877 85.7317C102.941 82.2136 96.8122 77.889 95.9183 73.3121L96.1133 72.7428C96.9202 72.5353 97.1826 72.6026 97.9612 72.8088C102.423 73.8884 106.57 78.9102 110.074 81.8385C112.513 83.8855 114.797 86.6551 116.172 89.5392C116.431 90.2299 116.783 91.0281 117.427 91.3796C117.678 90.5711 117.156 89.7992 116.816 89.0825ZM122.346 39.4306C119.101 44.3594 117.557 49.6003 114.948 54.7872L114.912 59.8756C117.862 66.2727 117.854 68.7278 122.722 74.5089C125.906 70.0577 128.843 64.1618 129.192 58.6166C129.587 52.3511 126.459 44.1086 122.346 39.4306Z"/>
	<path fill="#EFEDEE" transform="matrix(0.486224 0 0 0.486275 6.10352e-05 0)" d="M2.11887 116.922C2.60098 117.868 2.40511 119.086 2.94998 119.867L3.11796 117.775C3.30742 119.064 3.37817 120.304 3.40071 121.604C3.01787 144.936 6.9189 165.639 18.1603 186.288C19.441 188.64 25.7967 197.646 26.0794 199.476C24.2568 197.698 22.6724 195.488 21.1951 193.415C19.2487 190.684 17.6346 187.708 15.9901 184.788C6.54918 168.025 2.06282 150.032 1.62501 130.813C1.52209 126.295 1.37681 121.381 2.11887 116.922Z"/>
	<path fill="#EFEDEE" transform="matrix(0.486224 0 0 0.486275 6.10352e-05 0)" d="M24.6076 56.4905C24.5211 57.9495 18.0199 67.8209 16.8327 70.2766C13.1404 77.9143 9.97349 85.7424 7.6865 93.9202C6.76344 97.2208 6.28618 100.68 5.31053 103.941C5.15949 103.559 5.02046 103.439 4.71101 103.191C4.3067 103.682 3.94347 104.196 3.57878 104.717C4.42844 92.6808 15.8215 64.7989 24.6076 56.4905Z"/>
	<path fill="#FEFCFE" transform="matrix(0.486224 0 0 0.486275 6.10352e-05 0)" d="M3.57878 104.717C3.94347 104.196 4.3067 103.682 4.71101 103.191C5.02046 103.439 5.15949 103.559 5.31053 103.941C4.47425 109.818 3.77297 115.677 3.40071 121.604C3.37817 120.304 3.30742 119.064 3.11796 117.775L2.94998 119.867C2.40511 119.086 2.60098 117.868 2.11887 116.922C1.88804 113.132 2.77314 108.379 3.57878 104.717Z"/>
	<path fill="#EFEDEE" transform="matrix(0.486224 0 0 0.486275 6.10352e-05 0)" d="M122.458 38.0115C127.579 43.0332 130.485 49.8918 130.532 57.0656C130.663 67.8985 123.797 71.4731 122.506 81.4883C122.317 80.044 122.207 78.4165 121.69 77.0494C119.596 71.5188 113.576 66.3471 114.912 59.8756C117.862 66.2727 117.854 68.7278 122.722 74.5089C125.906 70.0577 128.843 64.1618 129.192 58.6166C129.587 52.3511 126.459 44.1086 122.346 39.4306C119.101 44.3594 117.557 49.6003 114.948 54.7872C114.127 51.3404 116.941 45.6138 118.682 42.7666C119.748 41.022 120.962 39.4126 122.458 38.0115Z"/>
	<path fill="#EFEDEE" transform="matrix(0.486224 0 0 0.486275 6.10352e-05 0)" d="M98.1826 64.601C98.8299 64.4008 98.9883 64.5894 99.578 64.9019C111.099 71.0079 117.21 84.7928 120.811 96.7191C120.999 97.3402 121.118 97.9667 121.192 98.6112L120.942 99.0478C118.756 97.3041 116.356 91.311 114.492 88.6979C110.153 82.6149 103.977 77.4207 97.8682 73.1519L97.9612 72.8088C102.423 73.8884 106.57 78.9102 110.074 81.8385C112.513 83.8855 114.797 86.6551 116.172 89.5392C116.431 90.2299 116.783 91.0281 117.427 91.3796C117.678 90.5711 117.156 89.7992 116.816 89.0825C115.718 86.796 114.328 83.0439 112.556 81.3029C110.095 74.802 104.073 68.1255 98.1826 64.601Z"/>
	<path fill="#EFEDEE" transform="matrix(0.486224 0 0 0.486275 6.10352e-05 0)" d="M123.47 99.7939C125.186 91.078 128.871 81.6439 134.238 74.5126C134.941 73.5777 136.392 71.411 137.589 71.2431C133.81 75.8838 128.353 86.3082 127.287 92.1049C129.743 87.7194 131.823 84.9284 135.767 81.7698C135.605 82.9879 133.047 85.4631 132.146 86.5528C128.716 90.7019 126.812 95.6967 123.47 99.7939Z"/>
	<path fill="#FEFCFE" fill-opacity="0.031372551" transform="matrix(0.486224 0 0 0.486275 6.10352e-05 0)" d="M110.074 81.8385C111.462 80.9212 111.352 81.521 112.556 81.3029C114.328 83.0439 115.718 86.796 116.816 89.0825L116.172 89.5392C114.797 86.6551 112.513 83.8855 110.074 81.8385Z"/>
	<path fill="#EFEDEE" fill-opacity="0.45882353" transform="matrix(0.486224 0 0 0.486275 6.10352e-05 0)" d="M116.816 89.0825C117.156 89.7992 117.678 90.5711 117.427 91.3796C116.783 91.0281 116.431 90.2299 116.172 89.5392L116.816 89.0825Z"/>
	<path fill="#16757F" transform="matrix(0.486224 0 0 0.486275 6.10352e-05 0)" d="M320.806 35.8336C326.277 35.7582 332.046 36.3721 337.47 35.8336C337.735 36.3452 337.86 36.8073 337.898 37.3838C338.211 42.1367 337.972 46.9697 338.107 51.7362C338.592 68.9565 338.632 86.1446 338.675 103.371C338.683 106.732 339.211 120.634 338.508 123.077C338.439 123.318 338.336 123.543 338.23 123.769C338.206 123.821 338.183 123.873 338.159 123.926C333.374 123.597 328.569 123.824 323.777 123.768C323.955 123.423 324.107 123.067 324.15 122.678C324.458 119.845 324.578 88.5351 324.142 87.2553C324.047 86.9762 323.92 86.7175 323.777 86.4604C323.834 86.3118 323.883 86.1614 323.918 86.0057C324.095 85.2258 323.794 76.4388 323.629 75.1016C323.561 74.5517 323.302 74.0167 323.011 73.5517C323.024 73.6453 323.036 73.7391 323.043 73.8334C323.177 75.8397 320.849 84.0599 319.488 85.5818C319.566 85.8725 319.635 86.1947 319.578 86.4955C319.143 88.7721 318.24 91.0441 317.66 93.304C316.774 96.7525 314.858 107.592 313.466 109.973C313.333 110.2 313.168 110.412 312.998 110.614C310.967 110.625 302.414 111.1 301.2 110.125C301.097 109.695 300.999 109.277 300.949 108.838C300.762 107.208 299.874 104.418 298.838 103.139C299.261 101.309 294.71 90.3703 293.925 87.6973C292.682 83.4675 291.731 79.1232 290.671 74.843L290.36 74.6974L289.671 76.2669C289.892 76.74 290.033 77.1719 290.049 77.6971C290.172 81.6992 290.399 122.799 290.215 123.291C290.134 123.504 290.028 123.703 289.911 123.898C285.376 123.714 280.862 123.847 276.326 123.836C276.869 122.999 276.852 122.128 276.87 121.169C277.269 100.484 276.907 79.7118 276.946 59.0172L276.975 42.85C276.977 41.0782 277.31 38.5254 276.919 36.8169C276.84 36.4694 276.703 36.1463 276.542 35.8294C281.762 35.96 287.538 35.2582 292.671 35.9836C293.122 36.4756 293.341 36.9301 293.552 37.5643C297.241 48.6476 299.902 60.2965 302.931 71.596C303.842 74.996 306.334 82.1886 306.419 85.3061C306.424 85.4961 306.376 85.7003 306.328 85.8831C306.67 85.7379 307.188 85.6099 307.377 85.2957C308.339 83.702 310.989 76.3794 310.553 74.6837C311.883 72.4575 321.257 37.4229 320.84 35.933C320.83 35.8994 320.817 35.8668 320.806 35.8336Z"/>
	<path fill="#EFEDEE" transform="matrix(0.486224 0 0 0.486275 6.10352e-05 0)" d="M288.703 66.6853C289.211 67.1206 289.635 67.6515 289.886 68.275C291.358 71.9396 299.109 98.7228 299.265 101.953C299.295 102.582 299.2 102.646 298.838 103.139C299.261 101.309 294.71 90.3703 293.925 87.6973C292.682 83.4675 291.731 79.1232 290.671 74.843L290.36 74.6974L289.671 76.2669C290.36 74.1461 289.69 68.6515 288.703 66.6853Z"/>
	<path fill="#EFEDEE" transform="matrix(0.486224 0 0 0.486275 6.10352e-05 0)" d="M323.946 65.4334C324.272 65.9119 324.644 66.4632 324.757 67.038C325.437 70.4797 324.781 82.9212 324.612 87.1501C324.324 86.9303 324.031 86.7198 323.777 86.4604C323.834 86.3118 323.883 86.1614 323.918 86.0057C324.095 85.2258 323.794 76.4388 323.629 75.1016C323.561 74.5517 323.302 74.0167 323.011 73.5517C323.024 73.6453 323.036 73.7391 323.043 73.8334C323.177 75.8397 320.849 84.0599 319.488 85.5818C320.593 81.4687 324.787 69.0264 323.946 65.4334Z"/>
	<path fill="#EFEDEE" transform="matrix(0.486224 0 0 0.486275 6.10352e-05 0)" d="M310.553 74.6837C310.678 74.9126 310.953 75.2906 311.017 75.5312C311.347 76.7619 308.386 87.1675 307.863 89.0069C307.573 90.0281 307.075 90.5737 306.431 91.3763L306.356 91.4685C307.047 89.6147 306.652 87.7712 306.328 85.8831C306.67 85.7379 307.188 85.6099 307.377 85.2957C308.339 83.702 310.989 76.3794 310.553 74.6837Z"/>
	<path fill="#16757F" transform="matrix(0.486224 0 0 0.486275 6.10352e-05 0)" d="M398.944 36.019C403.121 35.4824 408.115 35.8189 412.334 36.0584C414.124 37.2698 425.326 67.1002 427.102 71.5911C428.202 74.3713 430.027 80.6021 432.07 82.5489C432.321 82.7884 432.362 82.7412 432.702 82.7285C433.201 80.1302 432.906 77.1305 432.909 74.4622C432.919 66.9017 432.668 59.3856 432.475 51.829C432.353 47.0411 432.681 41.9669 432.238 37.2309C432.197 36.7968 432.016 36.3824 431.821 35.997C436.6 35.9787 441.384 36.0857 446.161 35.9878C446.988 39.2003 447.228 121.612 446.662 123.499C445.832 124.003 445.256 123.858 444.297 123.842C440.433 123.674 436.499 123.802 432.627 123.783C432.663 123.543 432.687 123.376 432.653 123.134C432.304 120.644 430.754 117.721 429.851 115.362C426.581 106.825 423.026 98.4232 419.653 89.9313C418.17 86.1993 417.143 82.054 415.34 78.4809C414.613 77.0384 413.634 75.7797 412.289 74.8733C412.481 75.3512 412.63 75.8922 412.657 76.4083C412.982 82.5696 412.467 88.9783 412.495 95.1729C412.536 104.068 413.053 113.025 412.72 121.914C412.693 122.621 412.583 123.19 412.305 123.843C407.724 123.567 403.059 123.789 398.475 123.894C399.792 121.816 398.838 111.602 398.769 108.585C398.469 95.3859 398.337 82.0958 398.637 68.8958C398.877 58.3221 399.704 46.4505 398.944 36.019Z"/>
	<path fill="#16757F" transform="matrix(0.486224 0 0 0.486275 6.10352e-05 0)" d="M408.733 142.42C413.691 141.81 422.459 142.133 427.53 142.475C427.609 142.608 427.682 142.744 427.748 142.884C429.827 147.214 432.141 161.691 433.268 167.005C437.177 185.44 441.488 204.048 444.842 222.571C445.161 224.334 446.185 227.921 445.612 229.583C440.647 229.638 435.681 229.653 430.715 229.628C430.854 229.229 430.909 228.761 430.873 228.339C430.767 227.113 428.052 211.488 427.923 211.251C427.85 211.118 427.43 210.858 427.292 210.748C425.391 211.418 411.428 210.714 408.393 210.625C408.856 213.974 406.644 226.565 405.331 229.512C400.479 230.063 395.096 229.721 390.2 229.603C391.951 226.749 391.719 219.217 392.494 215.665L408.733 142.42ZM410.208 198.043L418.388 197.963C420.572 197.945 422.865 198.07 425.033 197.823C425.295 197.157 425.257 196.609 425.152 195.913C424.482 191.48 423.131 187.16 422.25 182.769C421.216 177.617 420.752 170.322 418.807 165.633C418.256 165.167 418.162 165.117 417.448 165.026C415.393 170.969 412.962 194.926 410.208 198.043Z"/>
	<path fill="#16757F" transform="matrix(0.486224 0 0 0.486275 6.10352e-05 0)" d="M521.806 36.0194C527.556 35.3638 534.036 35.7222 539.828 35.9122C540.015 36.1224 540.174 36.3209 540.296 36.5772C541.521 39.1526 544.185 54.1886 545.071 58.3452C549.012 76.8283 553.418 95.2349 556.861 113.818C557.308 116.227 558.895 121.596 558.15 123.893C554.503 123.749 550.852 123.928 547.208 123.788C546.362 123.756 545.161 123.758 544.415 123.344C542.269 122.153 542.103 106.896 540.021 104.64C535.326 105.3 526.321 104.807 521.357 104.534C521.373 104.611 521.39 104.689 521.405 104.766C521.899 107.413 518.986 121.989 517.794 123.721C514.768 123.89 506.635 124.383 504.12 123.308C504.739 117.424 506.191 111.432 507.323 105.614C510.003 92.3333 512.772 79.0705 515.63 65.8269C516.985 59.5208 518.294 53.2049 519.557 46.8797C520.254 43.3474 520.693 39.4318 521.806 36.0194ZM523.391 91.6004L531.364 91.5758C533.545 91.5657 535.727 91.5312 537.907 91.4724C537.979 88.6364 532.683 63.4659 531.533 60.1573C530.979 59.7841 530.898 59.8041 530.223 59.8307C529.938 62.7658 524.392 90.4485 523.391 91.6004Z"/>
	<path fill="#16757F" transform="matrix(0.486224 0 0 0.486275 6.10352e-05 0)" d="M590.797 142.276C595.675 142.331 600.554 142.348 605.432 142.328C605.593 142.611 605.709 142.899 605.794 143.213C606.552 146.009 606.046 164.069 606.049 168.555L606.057 207.759C606.057 214.435 606.243 221.165 606.038 227.833C606.017 228.507 605.932 228.969 605.598 229.554L601.259 229.573L591.184 229.633C591.699 228.298 591.36 192.338 591.059 191.525C585.523 192.056 577.8 191.513 572.004 191.444C572.192 191.703 572.328 191.963 572.419 192.271C573.037 194.361 572.719 224.716 572.367 228.454C572.322 228.933 572.15 229.333 571.913 229.744C567.212 229.577 562.495 229.676 557.792 229.702C558.708 228.092 558.125 217.326 558.095 214.452C557.992 196.699 557.99 178.945 558.088 161.191C558.083 156.7 558.706 146.1 558.017 142.42C562.544 141.804 567.619 142.386 572.211 142.354C572.872 145.651 573.017 176.836 572.247 178.122C578.467 178.039 584.7 178.133 590.922 178.146C591.075 177.844 591.207 177.472 591.253 177.138C591.714 173.829 591.219 165.358 591.218 161.563C591.216 156.02 591.771 148.912 591.309 143.556C591.267 143.071 591.073 142.668 590.797 142.276Z"/>
	<path fill="#16757F" transform="matrix(0.486224 0 0 0.486275 6.10352e-05 0)" d="M276.342 142.26C281.194 142.326 286.111 142.573 290.957 142.39C291.783 144.746 291.691 173.852 291.183 178.156C293.928 178.691 306.034 178.124 309.612 178.014C310.231 172.642 309.753 166.692 309.781 161.254C309.811 155.555 310.241 149.738 309.981 144.054C309.951 143.401 309.813 142.875 309.493 142.303C313.956 142.358 318.606 141.979 323.035 142.525L324.314 142.497C324.884 159.154 324.254 175.812 324.244 192.469L324.249 215.785C324.25 219.692 324.491 223.787 324.189 227.675C324.124 228.52 323.986 228.722 323.461 229.356C321.062 230.114 312.679 229.631 309.592 229.618C309.956 228.967 309.97 228.344 309.992 227.62C310.175 221.569 309.798 215.432 309.747 209.368C309.697 203.476 309.965 197.487 309.757 191.611C303.616 191.578 297.286 191.147 291.171 191.494C291.883 196.998 291.25 206.788 291.156 212.767C291.075 217.948 291.375 223.303 291 228.458C290.967 228.918 290.806 229.304 290.586 229.702L276.287 229.719C276.316 229.664 276.346 229.611 276.373 229.555C277.062 228.108 276.532 213.789 276.543 211.011L276.553 163.517C276.547 159.286 276.508 155.052 276.567 150.821C276.599 148.432 276.817 145.938 276.69 143.56C276.666 143.111 276.511 142.673 276.342 142.26Z"/>
	<path fill="#16757F" transform="matrix(0.486224 0 0 0.486275 6.10352e-05 0)" d="M341.232 142.42C344.538 142.041 348.188 142.333 351.532 142.334C360.049 142.337 368.631 142.593 377.142 142.372C377.551 144.431 377.661 153.299 376.686 155.048C369.774 154.943 362.704 155.273 355.822 154.769C356.198 162.792 355.525 170.884 356.134 178.896C360.601 178.212 370.027 178.822 374.968 178.872C375.104 179.134 375.241 179.424 375.303 179.714C375.731 181.699 375.741 190.026 374.867 191.515C368.588 191.772 361.978 191.627 355.698 191.386C356.142 193.87 356.426 208.482 355.33 210.227C356.179 211.579 356.149 215.389 355.795 216.945C363.054 217.097 370.331 216.978 377.593 217.035C377.618 217.085 377.642 217.135 377.668 217.184C377.758 217.354 377.849 217.521 377.921 217.7C378.604 219.386 378.626 228.032 377.96 229.657C365.649 229.422 353.315 229.723 340.999 229.606C341.568 228.472 340.91 219.064 340.936 217.103C341.123 198.24 341.175 179.376 341.092 160.512C341.063 156.793 340.988 153.065 341.056 149.346C341.098 147.04 341.349 144.724 341.232 142.42Z"/>
	<path fill="#16757F" transform="matrix(0.486224 0 0 0.486275 6.10352e-05 0)" d="M351.882 36.0193C359.918 35.8262 367.979 35.9799 376.02 35.9907C379.799 35.9958 383.72 36.2242 387.48 35.8406C387.601 36.0443 387.726 36.2734 387.782 36.5049C388.265 38.4945 388.111 47.0171 387.207 48.6042C379.867 48.3272 372.468 48.6113 365.117 48.4541C365.358 48.8016 365.556 49.1771 365.648 49.5941C366.072 51.5217 366.079 70.1044 365.743 72.1787C365.677 72.5877 365.494 72.9356 365.27 73.2781C371.677 73.1898 378.084 73.1796 384.491 73.2476C384.516 73.2977 384.54 73.3482 384.566 73.3978C384.701 73.6597 384.844 73.9355 384.909 74.2256C385.346 76.1546 385.409 84.3147 384.573 85.7814C381.11 86.3118 369.339 85.7659 365.473 85.5605C365.486 85.6154 365.501 85.6701 365.514 85.7252C366.052 88.0355 366.273 104.002 365.264 105.647C366.094 106.913 365.922 109.613 365.63 111.048C372.843 110.528 380.243 110.816 387.479 110.727C387.595 110.933 387.688 111.152 387.772 111.372C388.289 112.731 388.435 122.602 387.85 123.91C375.882 123.452 363.686 123.611 351.711 123.928C352.188 123.166 352.125 122.274 352.124 121.407L351.582 53.4714C351.587 49.5816 350.977 38.9588 351.882 36.0193Z"/>
	<path fill="#16757F" transform="matrix(0.486224 0 0 0.486275 6.10352e-05 0)" d="M497.391 142.42C501.319 141.791 506.82 142.369 510.936 142.382C522.671 142.42 534.545 142.708 546.268 142.355C546.684 144.583 547.051 153.179 545.947 154.93C540.48 155.063 534.769 154.915 529.31 154.548C529.329 154.625 529.348 154.703 529.366 154.78C529.938 157.252 529.586 160.453 529.587 163.005L529.592 178.875C529.629 189.408 530.391 200.208 529.75 210.717C529.712 211.343 529.578 211.818 529.241 212.35C529.374 212.564 529.495 212.785 529.579 213.023C530.202 214.789 530.008 227.895 529.212 229.631L514.706 229.592C514.735 229.542 514.765 229.492 514.792 229.441C515.064 228.923 515.141 228.365 515.15 227.789C515.436 209.448 515.145 191.061 515.162 172.715C515.164 170.027 515.645 156.709 515.144 154.982C509.126 154.855 503.105 154.926 497.092 155.193C498.202 152.93 497.459 145.326 497.391 142.42Z"/>
	<path fill="#16757F" transform="matrix(0.486224 0 0 0.486275 6.10352e-05 0)" d="M456.274 36.0193L504.084 35.9696C504.174 36.1753 504.259 36.3863 504.319 36.603C504.922 38.7504 504.984 46.7753 503.987 48.4881C498.711 48.791 493.172 48.2649 487.866 48.1985C487.938 48.4175 488.002 48.6395 488.055 48.8639C488.841 52.1792 488.305 64.8545 488.31 69.1711L488.334 93.7531C488.336 98.0535 488.504 102.418 488.293 106.708C488.262 107.346 488.139 107.817 487.798 108.36C487.977 108.641 488.135 108.943 488.214 109.269C488.678 111.173 488.809 122.334 487.866 123.91C483.038 123.714 478.184 123.784 473.355 123.9C473.379 123.86 473.406 123.822 473.426 123.781C473.712 123.193 473.737 122.529 473.752 121.89C473.914 114.911 474.17 50.3457 473.532 48.5191L455.733 48.5503C456.851 46.6613 456.268 38.5618 456.274 36.0193Z"/>
	<path fill="#16757F" transform="matrix(0.486224 0 0 0.486275 6.10352e-05 0)" d="M567.129 36.0192C571.536 35.3961 576.743 35.8768 581.227 35.8091C581.248 35.8479 581.272 35.8858 581.292 35.9255C581.325 35.9913 581.353 36.0593 581.386 36.1254C581.504 36.367 581.63 36.6139 581.685 36.88C582.085 38.8071 581.803 41.404 581.805 43.4043L581.811 57.8127C581.81 74.8961 582.304 92.3844 581.786 109.416C581.764 110.131 581.682 110.608 581.282 111.208C588.863 111.254 596.745 111.756 604.292 111.2C605.01 113.532 605.139 121.209 604.361 123.511L603.519 123.87C600.312 123.253 596.16 123.693 592.867 123.692L567.309 123.787C568.091 122.159 567.358 111.623 567.314 108.897C567.041 91.9887 567.098 75.0398 567.172 58.1274L567.262 43.6906C567.278 41.242 567.564 38.4143 567.129 36.0192Z"/>
	<path fill="#16757F" transform="matrix(0.486224 0 0 0.486275 6.10352e-05 0)" d="M460.2 142.42C464.806 141.838 469.598 142.75 474.233 142.28C474.291 142.489 474.342 142.7 474.385 142.913C474.881 145.36 474.653 148.389 474.671 150.89L474.697 167.083L474.717 197.605C474.715 203.616 474.867 209.738 474.563 215.739C474.537 216.25 474.434 216.576 474.149 217.009L496.379 216.945C496.496 217.117 496.602 217.287 496.69 217.476C497.555 219.342 497.248 227.193 496.451 229.229L496.161 229.559C484.128 230.017 471.981 229.542 459.928 229.672C460.724 228.195 460.25 218.705 460.26 216.336L460.267 163.564C460.215 159.485 460.202 155.406 460.228 151.326C460.264 148.419 460.544 145.299 460.2 142.42Z"/>
	<path transform="matrix(0.486224 0 0 0.486275 6.10352e-05 0)" d="M321.025 87.8576L321.516 88.031C321.857 89.4418 320.957 91.2173 320.401 92.5119L320.269 92.5207C319.923 91.506 320.954 89.1336 321.025 87.8576Z"/>
</svg>
